HIERARCHY
ROOT Hips
{
	OFFSET 0.000000 0.000000 0.000000
	CHANNELS 6 Xposition Yposition Zposition Zrotation Yrotation Xrotation 
	JOINT LowerBack
	{
		OFFSET 0.000000 0.000000 0.000000
		CHANNELS 3 Zrotation Yrotation Xrotation
		JOINT Spine
		{
			OFFSET 0.028270 2.035590 -0.193380
			CHANNELS 3 Zrotation Yrotation Xrotation
			JOINT Spine1
			{
				OFFSET 0.056720 2.048850 -0.042750
				CHANNELS 3 Zrotation Yrotation Xrotation
				JOINT Neck
				{
					OFFSET 0.000000 0.000000 0.000000
					CHANNELS 3 Zrotation Yrotation Xrotation
					JOINT Neck1
					{
						OFFSET -0.054170 1.746240 0.172020
						CHANNELS 3 Zrotation Yrotation Xrotation
						JOINT Head
						{
							OFFSET 0.104070 1.761360 -0.123970
							CHANNELS 3 Zrotation Yrotation Xrotation
							End Site
							{
								OFFSET 0.000000 0.000000 0.000000
							}
						}
					}
				}
				JOINT LeftShoulder
				{
					OFFSET 0.000000 0.000000 0.000000
					CHANNELS 3 Zrotation Yrotation Xrotation
					JOINT LeftArm
					{
						OFFSET 3.362410 1.200890 -0.311210
						CHANNELS 3 Zrotation Yrotation Xrotation
						JOINT LeftForeArm
						{
							OFFSET 4.983000 -0.000000 -0.000000
							CHANNELS 3 Zrotation Yrotation Xrotation
							JOINT LeftHand
							{
								OFFSET 3.483560 -0.000000 -0.000000
								CHANNELS 3 Zrotation Yrotation Xrotation
								JOINT LeftFingerBase
								{
									OFFSET 0.000000 0.000000 0.000000
									CHANNELS 3 Zrotation Yrotation Xrotation
									JOINT LeftHandIndex1
									{
										OFFSET 0.715260 -0.000000 -0.000000
										CHANNELS 3 Zrotation Yrotation Xrotation
										End Site
										{
											OFFSET 0.000000 0.000000 0.000000
										}
									}
								}
								JOINT LThumb
								{
									OFFSET 0.000000 0.000000 0.000000
									CHANNELS 3 Zrotation Yrotation Xrotation
									End Site
									{
										OFFSET 0.000000 0.000000 0.000000
									}
								}
							}
						}
					}
				}
				JOINT RightShoulder
				{
					OFFSET 0.000000 0.000000 0.000000
					CHANNELS 3 Zrotation Yrotation Xrotation
					JOINT RightArm
					{
						OFFSET -3.136600 1.374050 -0.404650
						CHANNELS 3 Zrotation Yrotation Xrotation
						JOINT RightForeArm
						{
							OFFSET -5.241900 -0.000000 -0.000000
							CHANNELS 3 Zrotation Yrotation Xrotation
							JOINT RightHand
							{
								OFFSET -3.444170 -0.000000 -0.000000
								CHANNELS 3 Zrotation Yrotation Xrotation
								JOINT RightFingerBase
								{
									OFFSET 0.000000 0.000000 0.000000
									CHANNELS 3 Zrotation Yrotation Xrotation
									JOINT RightHandIndex1
									{
										OFFSET -0.622530 -0.000000 -0.000000
										CHANNELS 3 Zrotation Yrotation Xrotation
										End Site
										{
											OFFSET 0.000000 0.000000 0.000000
										}
									}
								}
								JOINT RThumb
								{
									OFFSET 0.000000 0.000000 0.000000
									CHANNELS 3 Zrotation Yrotation Xrotation
									End Site
									{
										OFFSET 0.000000 0.000000 0.000000
									}
								}
							}
						}
					}
				}
			}
		}
	}
}
}
MOTION
Frames: 10
Frame Time: 0.008333
1.741758 17.231550 -2.102555 -155.455526 74.183799 -120.603401 9.888654 -4.258634 2.260673 2.212024 -4.735630 -2.201078 -2.913322 -4.857510 1.501495 0.964879 -16.316925 -2.373058 -2.590673 -0.251658 1.135395 0.000000 0.000000 0.000000 9.189439 4.774375 -3.507173 -65.568108 -28.117269 2.256651 -178.982608 -61.119243 179.863463 12.197761 -3.593704 -0.481083 -0.393165 0.804255 0.000000 0.000000 0.000000 0.000000 0.000000 0.000000 0.000000 -0.084457 -17.078836 0.190321 57.304506 -38.766980 18.475316 0.743595 74.088586 0.004636 1.682915 7.876743 0.117703 0.004249 -0.118749 -0.000000 0.000000 0.000000 0.000000 0.000000 0.000000 0.000000 
2.013404 17.248290 -2.170353 -154.826000 74.275778 -120.106102 10.050099 -4.353029 2.257117 2.295466 -4.832761 -2.242887 -2.751449 -4.963717 1.417245 0.725413 -16.474563 -2.423093 -2.432994 -0.240348 1.123828 0.000000 0.000000 0.000000 9.525255 4.649958 -3.477686 -65.647803 -26.844189 2.586746 -179.087211 -61.436922 179.862350 12.373225 -3.320233 -0.455414 -0.391817 0.788536 0.000000 0.000000 0.000000 0.000000 0.000000 0.000000 0.000000 -1.045918 -16.962598 0.210074 57.994018 -39.889948 17.039060 0.642873 76.247112 0.004676 2.207651 7.905397 0.155762 -0.005412 -0.128519 -0.000000 0.000000 0.000000 0.000000 0.000000 0.000000 0.000000 
2.284315 17.252390 -2.235875 -154.198673 74.434353 -119.735230 10.150759 -4.441837 2.349691 2.355474 -4.919977 -2.265352 -2.624327 -5.056936 1.316253 0.555194 -16.538975 -2.488776 -2.297001 -0.230201 1.108265 0.000000 0.000000 0.000000 9.799391 4.555491 -3.424658 -65.839744 -25.527027 3.089177 -179.159846 -61.859440 179.862790 12.435672 -3.094477 -0.430545 -0.388484 0.774093 0.000000 0.000000 0.000000 0.000000 0.000000 0.000000 0.000000 -1.833786 -16.747295 0.227346 58.749545 -40.969263 15.439113 0.540644 78.397824 0.004794 2.618562 7.950443 0.186425 -0.014191 -0.139404 -0.000000 0.000000 0.000000 0.000000 0.000000 0.000000 0.000000 
2.554035 17.244172 -2.299679 -153.506826 74.639496 -119.408983 10.213881 -4.522692 2.527141 2.396048 -4.996131 -2.270606 -2.537503 -5.136095 1.200347 0.466589 -16.519172 -2.570219 -2.186874 -0.221528 1.088645 0.000000 0.000000 0.000000 10.010802 4.489370 -3.348768 -66.138401 -24.176940 3.735611 -179.201319 -62.386477 179.864692 12.387757 -2.917733 -0.407572 -0.383296 0.760942 0.000000 0.000000 0.000000 0.000000 0.000000 0.000000 0.000000 -2.422735 -16.449633 0.239227 59.536622 -41.966370 13.714249 0.437929 80.540661 0.004949 2.891121 8.018386 0.208299 -0.021617 -0.151594 -0.000000 0.000000 0.000000 0.000000 0.000000 0.000000 0.000000 
2.822485 17.223758 -2.361767 -152.742321 74.879140 -119.099671 10.248689 -4.595678 2.771278 2.419430 -5.062046 -2.261739 -2.492169 -5.202104 1.073342 0.466466 -16.432138 -2.666553 -2.103760 -0.214444 1.065224 0.000000 0.000000 0.000000 10.164379 4.448781 -3.252965 -66.538842 -22.798784 4.495157 -179.216248 -63.020030 179.867907 12.238578 -2.784038 -0.386395 -0.376358 0.748746 0.000000 0.000000 0.000000 0.000000 0.000000 0.000000 0.000000 -2.805333 -16.093562 0.243064 60.324430 -42.841106 11.922271 0.336373 82.665334 0.005089 3.006065 8.118103 0.219884 -0.027258 -0.165203 -0.000000 0.000000 0.000000 0.000000 0.000000 0.000000 0.000000 
3.089805 17.191113 -2.422559 -151.889107 75.129897 -118.767656 10.272451 -4.661264 3.055450 2.430561 -5.119171 -2.243742 -2.486719 -5.256723 0.939608 0.553314 -16.296407 -2.775084 -2.046646 -0.208941 1.038789 0.000000 0.000000 0.000000 10.260573 4.426191 -3.140265 -67.036782 -21.390272 5.332210 -179.210879 -63.762515 179.872263 12.000604 -2.680271 -0.366116 -0.367806 0.736923 0.000000 0.000000 0.000000 0.000000 0.000000 0.000000 0.000000 -2.993223 -15.702543 0.237961 61.087904 -43.557348 10.121707 0.238193 84.754210 0.005132 2.964478 8.252770 0.221080 -0.030933 -0.180151 -0.000000 0.000000 0.000000 0.000000 0.000000 0.000000 0.000000 
3.356419 17.146122 -2.482072 -150.991887 75.377173 -118.437215 10.289458 -4.722214 3.354598 2.432031 -5.170743 -2.221061 -2.516888 -5.303478 0.804207 0.721341 -16.134706 -2.892333 -2.012359 -0.204865 1.010395 0.000000 0.000000 0.000000 10.299116 4.410055 -3.014506 -67.624420 -19.944572 6.208481 -179.193333 -64.621044 179.877545 11.690901 -2.589603 -0.345636 -0.357788 0.724697 0.000000 0.000000 0.000000 0.000000 0.000000 0.000000 0.000000 -3.009460 -15.303837 0.223477 61.808399 -44.080854 8.375542 0.146018 86.777411 0.004996 2.778902 8.421730 0.212086 -0.032609 -0.196192 -0.000000 0.000000 0.000000 0.000000 0.000000 0.000000 0.000000 
3.622722 17.088889 -2.540614 -150.110425 75.604955 -118.157776 10.302161 -4.782139 3.652188 2.425956 -5.220572 -2.196335 -2.577682 -5.346464 0.672216 0.960860 -15.971070 -3.014517 -1.996211 -0.201950 0.981091 0.000000 0.000000 0.000000 10.274220 4.388400 -2.879384 -68.291296 -18.460503 7.086283 -179.171923 -65.606576 179.883489 11.331487 -2.499176 -0.324259 -0.346589 0.711425 0.000000 0.000000 0.000000 0.000000 0.000000 0.000000 0.000000 -2.886394 -14.926193 0.199873 62.473479 -44.375545 6.747944 0.062759 88.690956 0.004601 2.464902 8.626503 0.193302 -0.032327 -0.213007 -0.000000 0.000000 0.000000 0.000000 0.000000 0.000000 0.000000 
3.889309 17.019632 -2.598726 -149.277236 75.789316 -117.943598 10.328276 -4.841930 3.922284 2.417670 -5.270414 -2.174362 -2.664818 -5.387936 0.548910 1.258393 -15.826611 -3.137399 -1.993924 -0.199971 0.952178 0.000000 0.000000 0.000000 10.170219 4.344589 -2.737230 -69.022768 -16.933612 7.926126 -179.154270 -66.731985 179.889820 10.945848 -2.389976 -0.300789 -0.334638 0.696318 0.000000 0.000000 0.000000 0.000000 0.000000 0.000000 0.000000 -2.658029 -14.593912 0.169114 63.080911 -44.412639 5.276177 179.990938 89.553748 -179.996050 2.065977 8.851615 0.166722 -0.030492 -0.229975 -0.000000 0.000000 0.000000 0.000000 0.000000 0.000000 0.000000 
4.156612 16.938961 -2.656818 -148.546119 75.913596 -117.841321 10.377137 -4.902861 4.152854 2.409871 -5.321906 -2.156843 -2.775589 -5.429848 0.438930 1.603072 -15.719768 -3.257420 -2.001574 -0.198702 0.924643 0.000000 0.000000 0.000000 9.970517 4.265520 -2.590051 -69.800844 -15.369255 8.693420 -179.147513 -68.016344 179.896213 10.562781 -2.254518 -0.275526 -0.322526 0.678969 -0.000000 0.000000 0.000000 0.000000 0.000000 0.000000 0.000000 -2.351305 -14.330168 0.132628 63.633550 -44.164007 3.990302 179.932511 88.014046 -179.996970 1.619454 9.084882 0.134651 -0.027477 -0.246483 -0.000000 0.000000 0.000000 0.000000 0.000000 0.000000 0.000000 
